HIERARCHY
ROOT Hips
{
	OFFSET -0.179506 -22.333345 2.821913
	CHANNELS 6 Xposition Yposition Zposition Zrotation Yrotation Xrotation 
	JOINT LeftUpLeg
	{
		OFFSET 6.951974 -9.140623 -0.681533
		CHANNELS 3 Zrotation Yrotation Xrotation
		JOINT LeftLeg
		{
			OFFSET 3.427654 -37.519855 -0.449580
			CHANNELS 3 Zrotation Yrotation Xrotation
			JOINT LeftFoot
			{
				OFFSET -1.359570 -39.796059 -4.369333
				CHANNELS 3 Zrotation Yrotation Xrotation
				JOINT LeftToe
				{
					OFFSET 2.635814 -5.579078 11.928840
					CHANNELS 3 Zrotation Yrotation Xrotation
					End Site
					{
						OFFSET 0.000000 0.000000 0.000000
					}
				}
			}
		}
	}
	JOINT RightUpLeg
	{
		OFFSET -6.767048 -9.052170 -0.431982
		CHANNELS 3 Zrotation Yrotation Xrotation
		JOINT RightLeg
		{
			OFFSET -3.829005 -38.256897 -0.885003
			CHANNELS 3 Zrotation Yrotation Xrotation
			JOINT RightFoot
			{
				OFFSET 1.577377 -39.841461 -4.231180
				CHANNELS 3 Zrotation Yrotation Xrotation
				JOINT RightToe
				{
					OFFSET -2.537174 -4.814398 12.334795
					CHANNELS 3 Zrotation Yrotation Xrotation
					End Site
					{
						OFFSET 0.000000 0.000000 0.000000
					}
				}
			}
		}
	}
	JOINT Spine
	{
		OFFSET -0.253288 10.896323 -2.669631
		CHANNELS 3 Zrotation Yrotation Xrotation
		JOINT Spine1
		{
			OFFSET 0.548704 13.518043 0.109247
			CHANNELS 3 Zrotation Yrotation Xrotation
			JOINT Spine2
			{
				OFFSET 0.145701 5.292222 2.542457
				CHANNELS 3 Zrotation Yrotation Xrotation
				JOINT Neck
				{
					OFFSET -0.277840 21.387037 -4.285703
					CHANNELS 3 Zrotation Yrotation Xrotation
					JOINT Head
					{
						OFFSET 0.515184 6.496960 5.134897
						CHANNELS 3 Zrotation Yrotation Xrotation
						End Site
						{
							OFFSET 0.000000 0.000000 0.000000
						}
					}
				}
				JOINT LeftShoulder
				{
					OFFSET 7.884473 12.174932 -3.408961
					CHANNELS 3 Zrotation Yrotation Xrotation
					JOINT LeftArm
					{
						OFFSET 9.097692 3.046888 -0.886815
						CHANNELS 3 Zrotation Yrotation Xrotation
						JOINT LeftForeArm
						{
							OFFSET 25.961220 -1.277207 -2.745643
							CHANNELS 3 Zrotation Yrotation Xrotation
							JOINT LeftHand
							{
								OFFSET 24.923361 0.898606 -0.117091
								CHANNELS 3 Zrotation Yrotation Xrotation
								End Site
								{
									OFFSET 0.000000 0.000000 0.000000
								}
							}
						}
					}
				}
				JOINT RightShoulder
				{
					OFFSET -8.175920 11.883285 -3.861528
					CHANNELS 3 Zrotation Yrotation Xrotation
					JOINT RightArm
					{
						OFFSET -9.601238 3.255117 -0.914307
						CHANNELS 3 Zrotation Yrotation Xrotation
						JOINT RightForeArm
						{
							OFFSET -25.374195 -1.332924 -2.140099
							CHANNELS 3 Zrotation Yrotation Xrotation
							JOINT RightHand
							{
								OFFSET -25.529810 0.777228 -0.555919
								CHANNELS 3 Zrotation Yrotation Xrotation
								End Site
								{
									OFFSET 0.000000 0.000000 0.000000
								}
							}
						}
					}
				}
			}
		}
	}
}
MOTION
Frames: 6
Frame Time: 0.033333
-224.792404 232.299225 94.595650 147.373356 1.424104 84.188781 -1.806869 -3.819933 8.910097 3.938649 -9.440311 -1.077371 2.494213 7.395748 -5.418326 nan nan nan -1.403773 -0.216370 4.987978 -2.255151 3.054625 5.692084 7.022149 -2.992863 -2.576650 nan nan nan 0.000224 3.727671 6.427694 2.441212 -4.063678 11.600292 1.005873 -0.991856 -4.254800 -1.702834 -0.667798 4.175452 6.226103 -0.723369 -13.053471 -27.986257 -6.132912 1.901557 -54.952280 -5.521190 10.310170 5.518580 -16.670142 -5.898045 -12.930865 -8.500533 0.193654 26.795312 8.127875 0.724096 53.352857 5.760539 13.046102 -8.340285 19.820519 -0.718116 14.332586 6.023824 5.693563 
-224.788315 232.323776 94.579018 147.320327 1.457900 84.204010 -1.728883 -3.753916 8.855409 3.862716 -9.388975 -1.004371 2.278408 7.518836 -5.443762 nan nan nan -1.198163 -0.060055 4.995842 -2.544481 3.160611 5.658939 7.138935 -3.173568 -2.604656 nan nan nan 0.144311 3.668431 6.527512 2.298133 -3.964317 11.204090 1.018843 -1.016652 -3.932809 -1.617343 -0.718635 4.263561 6.284209 -0.713424 -13.246713 -27.939136 -6.062746 1.890721 -54.937955 -5.507396 10.383534 5.538065 -16.804984 -5.478647 -13.025071 -8.712601 0.010009 26.826185 8.065524 0.665223 53.374868 5.763899 12.994733 -8.339637 19.830536 -0.671991 14.369144 6.167660 5.441427 
-224.794128 232.357803 94.572037 147.269918 1.463092 84.186781 -1.718425 -3.710147 8.887246 3.844044 -9.302382 -1.003890 2.147858 7.616858 -5.449682 nan nan nan -1.175127 -0.012444 4.991865 -2.608419 3.193224 5.703483 7.199486 -3.179902 -2.610852 nan nan nan 0.225538 3.670055 6.593811 2.250257 -3.913514 11.080657 1.021252 -0.991790 -3.861609 -1.651560 -0.756876 4.355994 6.329936 -0.714342 -13.359701 -27.925755 -6.136539 1.979720 -54.969784 -5.504535 10.452197 5.572109 -16.842546 -5.304163 -13.118903 -8.804921 -0.052583 26.754669 8.097987 0.746893 53.432823 5.694587 12.923461 -8.415954 19.918581 -0.777703 14.393726 6.285084 5.128781 
-224.793381 232.377609 94.572838 147.248630 1.520461 84.159477 -1.730156 -3.599845 8.859010 3.921241 -9.432503 -0.853474 2.137138 7.742958 -5.533642 nan nan nan -1.150172 -0.000923 4.948209 -2.528041 3.174763 5.869888 7.224733 -3.220334 -2.677708 nan nan nan 0.341444 3.648744 6.687885 2.264175 -3.873533 10.932393 1.030101 -0.970968 -3.782212 -1.740469 -0.868135 4.388931 6.305016 -0.710241 -13.437876 -27.949191 -6.195805 1.993758 -55.109016 -5.541868 10.507470 5.776563 -16.693311 -5.306688 -13.284238 -8.736911 -0.058309 26.623866 8.110534 0.710013 53.553722 5.574284 12.896492 -8.602014 19.967993 -0.801876 14.563790 6.257796 4.957542 
-224.797546 232.421753 94.575752 147.192941 1.522679 84.078056 -1.751570 -3.365036 8.966668 3.914912 -9.510761 -0.852623 1.972738 7.707104 -5.559260 nan nan nan -1.276299 -0.010483 4.915747 -2.299220 3.167271 6.154693 7.204684 -3.149453 -2.811326 nan nan nan 0.465025 3.606948 6.722013 2.234396 -3.767070 10.849564 1.000525 -1.026670 -3.609795 -1.711645 -0.927291 4.212834 6.172285 -0.755745 -13.300428 -28.030131 -6.205150 2.020960 -55.127231 -5.642159 10.362232 5.884225 -16.586813 -5.172888 -13.190903 -8.727617 -0.133763 26.588326 8.041860 0.719759 53.561220 5.617697 12.887218 -8.649908 20.058852 -0.610098 14.418454 6.173885 5.033503 
-224.798660 232.465805 94.587852 147.178070 1.480866 83.989964 -1.803648 -3.282621 9.114493 3.896583 -9.649795 -0.888831 1.933928 7.641574 -5.683109 nan nan nan -1.428301 -0.018763 4.911797 -2.108824 3.139236 6.415903 7.215020 -3.091089 -2.865819 nan nan nan 0.503525 3.583233 6.741718 2.197641 -3.709522 10.876975 0.987809 -1.103720 -3.522285 -1.659022 -0.964456 4.076444 6.057783 -0.768273 -13.133331 -28.067056 -6.216502 2.055437 -55.053697 -5.734561 10.230303 5.856350 -16.510618 -5.026852 -13.037430 -8.705348 -0.183673 26.608144 8.024376 0.789552 53.535383 5.746509 12.827907 -8.645041 20.033351 -0.670519 14.199127 6.130989 5.003072 
